<?xml version="1.0" encoding="UTF-8" standalone="no"?>
<!-- Created with Inkscape (http://www.inkscape.org/) -->

<svg
   xmlns:dc="http://purl.org/dc/elements/1.1/"
   xmlns:cc="http://creativecommons.org/ns#"
   xmlns:rdf="http://www.w3.org/1999/02/22-rdf-syntax-ns#"
   xmlns:svg="http://www.w3.org/2000/svg"
   xmlns="http://www.w3.org/2000/svg"
   xmlns:sodipodi="http://sodipodi.sourceforge.net/DTD/sodipodi-0.dtd"
   xmlns:inkscape="http://www.inkscape.org/namespaces/inkscape"
   width="325"
   height="325"
   id="svg5830"
   version="1.1"
   inkscape:version="0.48.5 r10040"
   sodipodi:docname="drawing.svg"
   inkscape:export-filename="/home/kuf/drawing.png"
   inkscape:export-xdpi="500"
   inkscape:export-ydpi="500">
  <defs
     id="defs5832">
    <clipPath
       clipPathUnits="userSpaceOnUse"
       id="clipPath3046">
      <path
         inkscape:connector-curvature="0"
         d="m 12.4961,128.717 545.6689,0 0,-116.2209 -545.6689,0 0,116.2209 z"
         id="path3048" />
    </clipPath>
  </defs>
  <sodipodi:namedview
     id="base"
     pagecolor="#ffffff"
     bordercolor="#666666"
     borderopacity="1.0"
     inkscape:pageopacity="0.0"
     inkscape:pageshadow="2"
     inkscape:zoom="1.4"
     inkscape:cx="37.338737"
     inkscape:cy="145.9876"
     inkscape:document-units="px"
     inkscape:current-layer="layer1"
     showgrid="false"
     inkscape:window-width="1366"
     inkscape:window-height="744"
     inkscape:window-x="0"
     inkscape:window-y="24"
     inkscape:window-maximized="1" />
  <metadata
     id="metadata5835">
    <rdf:RDF>
      <cc:Work
         rdf:about="">
        <dc:format>image/svg+xml</dc:format>
        <dc:type
           rdf:resource="http://purl.org/dc/dcmitype/StillImage" />
        <dc:title></dc:title>
      </cc:Work>
    </rdf:RDF>
  </metadata>
  <g
     inkscape:label="Layer 1"
     inkscape:groupmode="layer"
     id="layer1"
     transform="translate(0,-727.36218)">
    <path
       d="m 0,1052.3622 324.99999,0 0,-325 -324.99999,0 0,325 z"
       style="fill:#ef3138;fill-opacity:1;fill-rule:nonzero;stroke:none"
       id="path3038"
       inkscape:connector-curvature="0" />
    <g
       id="g3040"
       transform="matrix(1.25,0,0,-1.25,9.0085696,923.53929)">
      <g
         id="g3042">
        <g
           id="g3044"
           clip-path="url(#clipPath3046)">
          <path
             d="m 66.092,85.464 -13.333,0 0,-6.667 13.333,0 0,6.667 z m -13.333,-6.666 -6.667,0 0,-20 6.667,0 0,20 z m 13.333,-20 -13.333,0 0,-6.667 13.333,0 0,6.667 z m 6.667,20 -6.667,0 0,-20 6.667,0 0,20 z m 19.946,-26.667 0,13.333 13.333,0 0,6.667 -13.333,0 0,6.667 13.333,0 0,6.666 -20,0 0,-33.333 6.667,0 z m 13.333,20 6.667,0 0,6.667 -6.667,0 0,-6.667 z m 39.947,13.333 -20,0 0,-33.333 20,0 0,6.667 -13.334,0 0,6.666 13.334,0 0,6.667 -13.334,0 0,6.667 13.334,0 0,6.666 z m 19.946,0 -6.667,0 0,-33.333 6.667,0 0,33.333 z m 26.667,0 -6.667,0 0,-33.333 6.667,0 0,33.333 z m -13.334,-26.666 6.667,0 0,6.667 -6.667,0 0,-6.667 z m -6.666,6.666 6.667,0 0,6.667 -6.667,0 0,-6.667 z m -6.667,6.667 6.667,0 0,6.667 -6.667,0 0,-6.667 z"
             style="fill:#231f20;fill-opacity:1;fill-rule:nonzero;stroke:none"
             id="path3050"
             inkscape:connector-curvature="0" />
        </g>
      </g>
    </g>
    <path
       d="m 37.17042,929.55296 -25,0 0,8.33375 25,0 0,-8.33375 z m 8.33375,-33.3325 -25,0 0,8.33375 25,0 0,-8.33375 z m -25,16.66625 16.66625,0 0,8.33375 -16.66625,0 0,-8.33375 z m 16.66625,16.66625 8.33375,0 0,-8.33375 -8.33375,0 0,8.33375 z m -25,-16.66625 8.33375,0 0,-8.33375 -8.33375,0 0,8.33375 z m 83.26625,-8.33375 -8.33375,0 0,8.33375 8.33375,0 0,-8.33375 z m -8.3325,-8.3325 -16.66625,0 0,8.33375 16.66625,0 0,-8.33375 z m 8.3325,25 -8.33375,0 0,8.33375 8.33375,0 0,-8.33375 z m -25,-16.6675 -8.33375,0 0,25 8.33375,0 0,-25 z m 16.6675,25 -16.66625,0 0,8.33375 16.66625,0 0,-8.33375 z m 33.26625,-33.3325 -8.33374,0 0,41.66625 8.33374,0 0,-41.66625 z m 41.59875,0 -25,0 0,41.66625 25,0 0,-8.33375 -16.66625,0 0,-8.3325 16.66625,0 0,-8.33375 -16.66625,0 0,-8.33375 16.66625,0 0,-8.3325 z m 24.93375,0 -8.33375,0 0,41.66625 8.33375,0 0,-41.66625 z m 33.3325,0 -8.33375,0 0,41.66625 8.33375,0 0,-41.66625 z m -16.66625,33.3325 8.33375,0 0,-8.33375 -8.33375,0 0,8.33375 z m -8.33375,-8.3325 8.33375,0 0,-8.33375 -8.33375,0 0,8.33375 z m -8.3325,-8.33375 8.33375,0 0,-8.33375 -8.33375,0 0,8.33375 z m 83.26625,-8.33375 -8.33375,0 0,8.33375 8.33375,0 0,-8.33375 z m -8.33375,-8.3325 -16.66625,0 0,8.33375 16.66625,0 0,-8.33375 z m 8.33375,25 -8.33375,0 0,8.33375 8.33375,0 0,-8.33375 z m -25,-16.6675 -8.33374,0 0,25 8.33374,0 0,-25 z m 16.66625,25 -16.66625,0 0,8.33375 16.66625,0 0,-8.33375 z m 49.9325,-33.3325 -25,0 0,41.66625 25,0 0,-8.33375 -16.66625,0 0,-8.3325 16.66625,0 0,-8.33375 -16.66625,0 0,-8.33375 16.66625,0 0,-8.3325 z"
       style="fill:#ffffff;fill-opacity:1;fill-rule:nonzero;stroke:none"
       id="path3052"
       inkscape:connector-curvature="0" />
  </g>
</svg>
